#!OML:ASF I:\golf\golf\golf 2\Subject 1\2002-09-07\Subject1.ASF
:FULLY-SPECIFIED
:DEGREES
170
root -6.68027 17.8612 0.179842 -124.986 84.6656 -141.762
lowerback 2.78339 2.0809 -1.2872
upperback 4.13713 2.84512 5.10725
thorax 2.38822 1.3844 6.00158
lowerneck -14.2279 -3.4139 1.13965
upperneck 41.499 -1.79161 -3.36589
head 17.665 -0.31121 -1.87152
rclavicle 5.08889e-014 8.90555e-014
rhumerus -7.31051 2.06379 -100.033
rradius 24.9105
rwrist -45.7038
rhand -17.3055 -6.82168
rfingers 7.12502
rthumb 8.94053 -36.6122
lclavicle 5.08889e-014 8.90555e-014
lhumerus -13.2417 -54.4424 112.736
lradius 28.6682
lwrist 36.2419
lhand -9.19014 69.9268
lfingers 7.12502
lthumb -163.237 80.7769
rfemur -26.3936 -1.83493 11.0975
rtibia 25.4417
rfoot -8.34929 -14.4338
rtoes -3.59636
lfemur -28.5196 4.60106 -6.79083
ltibia 25.5463
lfoot -9.05115 0.403367
ltoes -25.2948
171
root -6.68516 17.8568 0.178998 -124.756 84.7483 -141.494
lowerback 2.82674 2.10681 -1.2338
upperback 4.18868 2.87983 5.04928
thorax 2.4185 1.40258 5.9091
lowerneck -14.2658 -3.41357 1.09566
upperneck 41.4626 -1.82106 -3.28232
head 17.6553 -0.321769 -1.83077
rclavicle -3.26007e-014 -2.70347e-014
rhumerus -7.39945 1.99271 -100.092
rradius 25.1882
rwrist -45.9736
rhand -17.4577 -6.58429
rfingers 7.12502
rthumb 8.79365 -36.3811
lclavicle -3.26007e-014 -2.70347e-014
lhumerus -12.9165 -54.6767 112.484
lradius 28.3776
lwrist 35.8099
lhand -8.85232 69.7637
lfingers 7.12502
lthumb -162.911 80.9678
rfemur -26.4858 -1.58337 10.9969
rtibia 25.6161
rfoot -8.32456 -14.5909
rtoes -4.0206
lfemur -28.513 4.75498 -6.87053
ltibia 25.6023
lfoot -9.06349 0.35698
ltoes -25.2512
172
root -6.68974 17.8519 0.17753 -124.522 84.8278 -141.254
lowerback 2.89455 2.15217 -1.18215
upperback 4.19115 2.94089 4.98241
thorax 2.38159 1.43553 5.80476
lowerneck -14.3194 -3.42962 1.11938
upperneck 41.4873 -1.86704 -3.2497
head 17.682 -0.331525 -1.83016
rclavicle 2.10712e-014 3.81667e-014
rhumerus -7.57216 2.03695 -100.125
rradius 25.5311
rwrist -46.3062
rhand -17.7719 -6.51671
rfingers 7.12502
rthumb 8.49044 -36.326
lclavicle 2.10712e-014 3.81667e-014
lhumerus -12.7437 -55.101 112.326
lradius 28.1278
lwrist 35.4165
lhand -8.14502 69.2247
lfingers 7.12502
lthumb -162.231 81.5672
rfemur -26.6252 -1.45412 10.9126
rtibia 25.8149
rfoot -8.41745 -14.5657
rtoes -3.5279
lfemur -28.5395 4.90995 -6.94579
ltibia 25.6721
lfoot -9.10095 0.258383
ltoes -25.0852
173
root -6.69251 17.8487 0.179562 -122.443 84.9132 -139.186
lowerback 2.9723 2.20539 -1.19997
upperback 4.15531 3.01374 5.01599
thorax 2.29035 1.47362 5.84385
lowerneck -14.3045 -3.41073 1.09662
upperneck 41.4938 -1.80808 -3.29574
head 17.684 -0.316926 -1.83633
rclavicle 3.97569e-016 4.69132e-014
rhumerus -7.82627 2.06026 -100.134
rradius 25.8569
rwrist -46.5969
rhand -18.2842 -6.47391
rfingers 7.12502
rthumb 7.996 -36.3027
lclavicle 3.97569e-016 4.69132e-014
lhumerus -12.6453 -55.6311 112.252
lradius 27.9636
lwrist 35.3601
lhand -7.51619 69.0076
lfingers 7.12502
lthumb -161.626 81.8402
rfemur -26.8288 -1.23772 10.9586
rtibia 26.0471
rfoot -8.54472 -14.5015
rtoes -2.78537
lfemur -28.5415 5.09985 -6.87757
ltibia 25.7574
lfoot -9.13161 0.234988
ltoes -24.9454
174
root -6.69597 17.8467 0.186592 -118.928 85.1368 -135.67
lowerback 3.0236 2.29607 -1.38276
upperback 4.15684 3.13319 5.05963
thorax 2.23905 1.52936 5.98917
lowerneck -14.2457 -3.35859 1.00625
upperneck 41.405 -1.70963 -3.29339
head 17.6234 -0.295524 -1.79802
rclavicle 5.08889e-014 1.74931e-014
rhumerus -8.03514 1.98444 -100.177
rradius 26.168
rwrist -46.9174
rhand -18.7424 -6.39373
rfingers 7.12502
rthumb 7.55377 -36.2388
lclavicle 5.08889e-014 1.74931e-014
lhumerus -12.4202 -56.2225 112.098
lradius 27.7456
lwrist 35.3742
lhand -7.10404 68.9315
lfingers 7.12502
lthumb -161.229 81.9542
rfemur -27.0721 -0.892129 10.9746
rtibia 26.2746
rfoot -8.52229 -14.4728
rtoes -2.98312
lfemur -28.5105 5.44082 -6.86477
ltibia 25.8609
lfoot -9.15957 0.261438
ltoes -24.7639
175
root -6.70266 17.8427 0.194064 -115.698 85.3855 -132.454
lowerback 3.05845 2.39367 -1.54253
upperback 4.17226 3.25991 5.02101
thorax 2.21508 1.58865 6.03536
lowerneck -14.2297 -3.31086 0.977008
upperneck 41.3124 -1.65777 -3.25666
head 17.5691 -0.279735 -1.76453
rclavicle -3.97569e-014 1.03368e-014
rhumerus -8.20772 2.03318 -100.249
rradius 26.5704
rwrist -47.5618
rhand -19.0531 -6.32252
rfingers 7.12502
rthumb 7.25393 -36.1782
lclavicle -3.97569e-014 1.03368e-014
lhumerus -12.1552 -56.9264 111.852
lradius 27.4544
lwrist 35.2477
lhand -6.46494 67.9766
lfingers 7.12502
lthumb -160.615 82.9697
rfemur -27.3167 -0.431972 10.8847
rtibia 26.4697
rfoot -8.49038 -14.5803
rtoes -3.05309
lfemur -28.5203 5.70624 -6.90319
ltibia 25.9922
lfoot -9.18888 0.360425
ltoes -24.5738
